<svg width="69" height="50" viewBox="0 0 69 50" fill="none" xmlns="http://www.w3.org/2000/svg">
<g clip-path="url(#clip0_453_1649)">
<path d="M54.2304 17.343C52.871 16.9311 51.6802 16.0931 50.8336 14.9527C49.9871 13.8122 49.5298 12.4298 49.5293 11.0096C49.5291 10.4814 49.5916 9.95496 49.7152 9.44141L54.0121 9.99513C54.0121 9.99513 55.6613 10.0679 55.6007 12.986C55.5401 15.8152 54.2304 17.343 54.2304 17.343Z" fill="#00AEEF"/>
<path d="M58.0702 17.343C59.4285 16.9298 60.6181 16.0913 61.4637 14.9511C62.3094 13.8108 62.7663 12.4291 62.7672 11.0096C62.7674 10.4814 62.705 9.95496 62.5813 9.44141L58.2844 9.99513C58.2844 9.99513 56.6392 10.0679 56.6999 12.986C56.7565 15.8152 58.0702 17.343 58.0702 17.343Z" fill="#00AEEF"/>
<path d="M56.1503 6.2727C56.2818 6.2727 56.412 6.29866 56.5334 6.34908C56.6548 6.3995 56.765 6.4734 56.8578 6.56653C56.9505 6.65966 57.024 6.77019 57.0739 6.89178C57.1239 7.01336 57.1493 7.14361 57.1488 7.27505C57.1373 7.47664 57.0704 7.67117 56.9556 7.83729C56.8408 8.00341 56.6825 8.13469 56.498 8.21676C56.4535 8.24101 56.4131 8.26122 56.4212 8.32993C56.4293 8.39864 56.6354 8.43906 56.7243 8.45927L62.4966 9.1302C62.092 7.76222 61.2557 6.56179 60.1127 5.70808C58.9696 4.85436 57.5811 4.39315 56.1544 4.39331C54.7271 4.39293 53.338 4.85399 52.1943 5.70767C51.0505 6.56135 50.2135 7.7619 49.8081 9.1302L55.5844 8.45927C55.6693 8.43906 55.8755 8.39864 55.8836 8.32993C55.8916 8.26122 55.8553 8.24101 55.8108 8.21676C55.6253 8.13565 55.4658 8.00471 55.3502 7.83847C55.2346 7.67223 55.1674 7.4772 55.156 7.27505C55.156 7.00921 55.2616 6.75426 55.4496 6.56628C55.6376 6.37831 55.8926 6.2727 56.1584 6.2727" fill="#00AEEF"/>
<path d="M58.7859 22.0234L59.1901 21.7809C59.1901 21.7809 57.3347 19.2629 53.1793 19.2629C51.0571 19.2629 49.9455 20.1198 48.4661 20.1198C48.0409 20.1518 47.6164 20.0485 47.2534 19.8247C47.2534 19.8247 47.9608 20.8513 50.5276 20.8513C52.4072 20.8513 53.7614 19.752 55.0711 19.752C56.8779 19.752 58.22 21.3687 58.7818 22.0234" fill="#00AEEF"/>
<path d="M53.0219 22.0234L52.6177 21.7809C52.6177 21.7809 54.4771 19.2629 58.6285 19.2629C60.7547 19.2629 61.8622 20.1198 63.3417 20.1198C63.7669 20.1518 64.1914 20.0485 64.5543 19.8247C64.5543 19.8247 63.8469 20.8513 61.2842 20.8513C59.4005 20.8513 58.0504 19.752 56.7407 19.752C54.9339 19.752 53.5878 21.3687 53.0259 22.0234" fill="#00AEEF"/>
<path d="M51.0453 19.0446C50.9725 19.2386 50.1762 19.0083 49.6386 19.1659C48.5922 19.4111 47.4924 19.269 46.5427 18.766C45.593 18.2629 44.8576 17.433 44.4727 16.4296C44.4727 16.4296 45.7945 17.8483 46.8171 17.9453C47.9009 18.0229 48.9574 18.3214 49.9216 18.8223L50.1398 18.8749C50.1194 18.8117 50.0762 18.7584 50.0186 18.7253C49.8933 18.6607 48.907 18.3414 48.43 16.7732C48.2921 16.1783 48.1948 15.5747 48.1389 14.9666C48.6907 15.5788 49.1961 16.2313 49.6507 16.9187C50.0913 17.6745 50.1398 18.5354 51.0453 19.0446Z" fill="#00AEEF"/>
<path d="M47.8108 17.4034C47.7299 17.4843 47.5319 17.3549 47.4551 17.3186C47.3783 17.2822 46.8569 17.0397 45.9556 16.7204C45.1771 16.3668 44.5283 15.7793 44.0994 15.0397C43.6706 14.3 43.483 13.445 43.5629 12.5938C43.7276 13.1664 44.0431 13.6843 44.4763 14.0933C45.1594 14.6914 45.4059 14.7642 45.8222 15.2532C46.2385 15.7423 47.1762 16.8699 47.2126 16.8416C47.249 16.8133 47.2611 16.7689 47.1883 16.7083C47.1156 16.6476 46.869 16.0373 46.7114 15.8272C46.5538 15.617 46.0769 14.1903 46.772 12.4321C47.2132 13.2211 47.452 14.107 47.4672 15.0107C47.4187 16.3041 47.3581 15.9969 47.6774 17.072C47.6774 17.072 47.8471 17.3671 47.8108 17.4034Z" fill="#00AEEF"/>
<path d="M45.7292 14.2428C45.6848 14.2873 45.4988 14.0125 45.3533 13.7578C45.2078 13.5032 44.1812 12.3998 44.0438 12.1816C43.6536 11.6607 43.4102 11.0447 43.3392 10.3978C43.2681 9.75091 43.3718 9.09677 43.6396 8.50362C43.6396 8.50362 43.7245 8.47936 43.7245 8.96841C43.8292 9.70299 44.1062 10.4024 44.5329 11.0095C44.9678 11.5935 45.2347 12.2853 45.3048 13.0101C45.3048 13.0101 45.3533 13.1597 45.414 13.1718C45.4746 13.1839 45.4746 13.0222 45.4746 13.0222C45.4746 13.0222 45.4261 12.2907 45.4261 11.7895C45.4395 11.1136 45.685 10.4629 46.1213 9.9465C46.2616 9.78269 46.381 9.60214 46.4769 9.40895C46.5261 9.29832 46.5961 9.19815 46.6831 9.11391C46.7246 10.0336 46.5958 10.953 46.3031 11.8259C45.8303 13.1314 45.6686 13.3537 45.7413 14.061C45.7413 14.061 45.7413 14.2186 45.7413 14.2428" fill="#00AEEF"/>
<path d="M44.9252 10.3871C44.8767 10.3871 44.8403 10.2133 44.8161 10.0799C44.7556 9.71076 44.665 9.34714 44.5453 8.99271C44.2485 8.41384 44.0855 7.77572 44.0684 7.12544C44.1079 5.94584 44.5831 4.82271 45.4021 3.9729C45.3412 4.29588 45.2464 4.61154 45.1192 4.91463C44.9643 5.35357 44.9391 5.82781 45.0465 6.28073C45.1056 6.68252 45.142 7.08734 45.1556 7.49324C45.1452 7.9754 45.1006 8.45623 45.0222 8.93209C45.0222 8.93209 44.998 9.06546 45.0465 9.06546C45.095 9.06546 45.1435 8.95634 45.1435 8.95634C45.2049 8.42818 45.4167 7.92878 45.7538 7.51749C46.3156 6.8304 47.33 6.41814 47.4876 6.11097C47.4876 6.11097 47.4149 7.18606 46.2307 8.44303C45.1758 9.56258 45.487 8.99271 45.1435 9.91017C45.0836 10.0405 45.0349 10.1757 44.9979 10.3143C44.9979 10.3871 44.9252 10.3628 44.9252 10.3628" fill="#00AEEF"/>
<path d="M45.5718 6.76987C45.5765 6.59889 45.6313 6.43305 45.7294 6.29295C45.9153 5.96557 45.7294 5.37952 45.9638 4.52268C46.1065 3.84365 46.398 3.20471 46.8174 2.65189C47.2367 2.09908 47.7734 1.64613 48.3888 1.32568C48.2964 1.41145 48.2113 1.50473 48.1342 1.60456C47.8354 2.11104 47.6044 2.65458 47.4471 3.22125C47.2485 3.89462 46.9309 4.52701 46.5095 5.08852C46.2872 5.32293 46.3842 5.34719 46.3842 5.34719C46.4808 5.31187 46.5603 5.24103 46.6065 5.14914C46.928 4.7054 47.3802 4.3733 47.8998 4.19933C48.4685 4.07115 49.0276 3.9037 49.5731 3.69817C48.9506 4.32926 48.2576 4.88665 47.5078 5.35932C46.5216 5.92111 46.4125 5.76348 45.8224 6.50716C45.8224 6.50716 45.6284 6.77391 45.5799 6.77391" fill="#00AEEF"/>
<path d="M47.9409 3.51217C47.9409 3.51217 47.9409 3.41112 48.1268 3.24137C48.3128 3.07162 48.4906 2.55832 48.8099 2.0814C49.1068 1.54424 49.5234 1.0826 50.0273 0.732176C50.5312 0.381754 51.1089 0.151948 51.7159 0.0605469C51.4853 0.225354 51.269 0.40923 51.0692 0.610226C50.7996 0.995366 50.5053 1.36259 50.1881 1.70957C49.8301 2.04085 49.437 2.33222 49.016 2.57854C49.016 2.57854 48.8948 2.67553 48.919 2.71191C48.9433 2.74828 49.0645 2.67553 49.0645 2.67553C49.4829 2.36998 49.9786 2.18794 50.4953 2.15012C51.2753 2.12587 52.112 2.15012 52.217 2.17437C51.4477 2.59682 50.606 2.87102 49.7354 2.98271C47.9894 3.29796 48.3208 3.31008 48.05 3.48388C48.05 3.48388 47.9894 3.53238 47.9409 3.48388" fill="#00AEEF"/>
<path d="M51.0452 1.48326C51.0452 1.48326 51.0816 1.38627 51.3604 1.30139C51.6393 1.21652 51.6191 0.945724 52.4719 0.493053C53.3247 0.0403814 54.2179 -0.165747 55.1233 0.214174C55.1233 0.214174 54.7434 0.262671 54.6827 0.286922C54.3816 0.368738 54.0848 0.465865 53.7936 0.577925C53.3111 0.818258 52.8079 1.01441 52.29 1.16398C51.9101 1.24077 52.096 1.26502 52.096 1.26502C52.1462 1.28596 52.1994 1.29826 52.2537 1.30139C52.744 1.25129 53.2393 1.28823 53.7168 1.41052C54.2664 1.60452 54.2543 1.67727 54.4766 1.75002C54.6989 1.82277 54.9535 1.87532 54.9899 1.9602C54.9899 1.9602 54.4402 2.00869 54.1088 2.00869C53.558 2.00424 53.0117 1.90863 52.4921 1.72577C52.1668 1.56068 51.8061 1.47744 51.4413 1.48326C51.3093 1.52189 51.1691 1.52189 51.0371 1.48326" fill="#00AEEF"/>
<path d="M54.5253 1.05494C54.5253 1.05494 54.5617 1.00644 54.8042 0.957941C55.0899 0.831821 55.3844 0.726464 55.6853 0.642688C56.0676 0.533782 56.4685 0.50665 56.862 0.563058C57.2554 0.619466 57.6326 0.758146 57.9689 0.970066H57.3585C57.2494 0.970066 56.2956 1.13982 56.0773 1.13982C55.8591 1.13982 55.4145 1.04282 55.3539 1.11557C55.2932 1.18832 55.758 1.28936 55.8308 1.31361C56.1397 1.37708 56.4218 1.53364 56.6391 1.76224C56.871 2.00137 57.124 2.21916 57.3949 2.41296C56.8753 2.29943 56.3647 2.14814 55.8672 1.96029C55.564 1.79054 55.0386 1.26512 54.9537 1.22874C54.8689 1.19237 54.5132 1.06706 54.5132 1.06706" fill="#00AEEF"/>
<path d="M57.3467 1.55617C57.8111 1.5497 58.2693 1.66389 58.6764 1.88758C59.2382 2.23921 59.6909 2.69592 59.7394 2.98693C59.5819 2.85064 59.4048 2.73892 59.214 2.65551C58.8978 2.52194 58.5912 2.36663 58.2965 2.19071C58.1752 2.11796 57.4679 1.66529 57.3467 1.55617Z" fill="#00AEEF"/>
<path d="M60.9606 19.1778C60.9606 19.1778 61.0697 19.0687 61.4376 18.7494C61.8054 18.4301 61.9024 17.9693 62.3066 17.2499C62.6969 16.5041 63.2266 15.84 63.8669 15.2937C63.8021 15.5307 63.7495 15.7708 63.7093 16.0131C63.6552 16.6145 63.4448 17.1914 63.0989 17.6864C62.8344 18.0918 62.4839 18.434 62.0722 18.6887C62.0722 18.6887 61.866 18.8342 61.8782 18.8868C61.8903 18.9393 62.242 18.8868 62.242 18.8868C62.4168 18.8216 62.5882 18.7474 62.7553 18.6645C62.8806 18.5917 63.4304 18.3088 63.6487 18.2239C63.9393 18.1031 64.2361 17.9979 64.538 17.9087C65.0271 17.7632 66.7976 17.3105 67.4969 16.1869C67.3901 16.5287 67.2335 16.8528 67.032 17.1488C66.7733 17.456 65.3221 19.3718 63.3051 19.3354C63.3051 19.3354 62.4966 19.2748 62.0924 19.202C61.889 19.1513 61.6793 19.1309 61.4699 19.1414C61.3019 19.1815 61.1291 19.1979 60.9565 19.1899" fill="#00AEEF"/>
<path d="M65.4675 12.3271C64.9561 13.215 64.6393 14.2014 64.5379 15.221C64.3682 16.9307 64.6632 16.4335 64.3803 17.1772C64.3803 17.1772 64.2833 17.3712 64.3197 17.3833C64.3561 17.3955 64.5016 17.3106 65.0391 16.9792C65.5767 16.6477 66.1021 16.7488 67.2499 15.6494C68.3978 14.5501 68.6322 12.3635 68.6564 12.1816C68.5346 12.3139 68.446 12.4732 68.3978 12.6464C68.3351 12.852 68.232 13.043 68.0946 13.2082C68.0583 13.2446 66.8094 14.6107 66.6639 14.732C66.2902 15.1332 65.9432 15.5585 65.6252 16.0051C65.4675 16.2597 65.0027 16.7245 64.9179 16.6882C64.9261 16.6205 64.9424 16.554 64.9664 16.4901C65.189 16.1526 65.3657 15.787 65.4918 15.4029C65.6076 15.0086 65.6727 14.6011 65.6858 14.1904C65.6858 13.8509 65.4797 12.5939 65.4675 12.3231" fill="#00AEEF"/>
<path d="M66.4944 13.9763C66.456 13.8775 66.456 13.7679 66.4944 13.6691C66.5552 13.2844 66.5047 12.8903 66.3489 12.5334C65.9599 11.6931 65.735 10.7864 65.686 9.8618C65.7224 8.9807 65.8235 8.85945 65.8235 8.85945C65.8235 8.85945 66.066 9.57888 66.1387 9.70013C66.2115 9.82138 66.9471 11.1188 66.8864 11.8261C66.8265 12.1362 66.8048 12.4524 66.8218 12.7678C66.8581 12.7678 66.9471 12.6829 66.9592 12.598C67.0473 12.2057 67.169 11.8217 67.3229 11.4502C67.5574 10.8722 68.495 9.60313 68.7052 8.76245C68.8608 9.73645 68.6798 10.7344 68.1919 11.5916C67.3836 12.9577 67.2866 12.6546 66.9471 13.277C66.6075 13.8995 66.5429 13.9722 66.5065 13.9722" fill="#00AEEF"/>
<path d="M67.2381 10.1042C67.1774 10.1042 67.2138 9.53031 67.0683 9.34843C66.9228 9.16655 65.6618 7.67516 65.395 6.18376C65.395 6.18376 66.2034 6.99212 66.3246 7.07699C66.6833 7.36836 66.9674 7.74108 67.1532 8.16421C67.3108 8.62901 67.2744 9.01701 67.335 9.02913C67.3957 9.04126 67.3957 8.51584 67.3957 8.51584C67.3996 8.01042 67.4333 7.50567 67.4967 7.00423C67.5816 6.51518 67.7998 5.69473 67.7028 5.28247C68.0152 5.84114 68.1715 6.47352 68.1555 7.11336C68.1281 7.82747 67.9446 8.52689 67.618 9.1625C67.5146 9.4073 67.4361 9.66186 67.3836 9.92235C67.3836 10.0315 67.2381 10.1042 67.2381 10.1042Z" fill="#00AEEF"/>
<path d="M65.7507 2.44922C65.7507 2.44922 67.3956 3.42327 67.141 6.69706C67.141 6.69706 67.141 6.84256 67.044 6.69706C66.8739 6.43448 66.6686 6.1965 66.4337 5.98976C66.2721 5.89276 64.817 4.99954 64.1865 3.63344C64.1865 3.63344 64.2835 3.60919 64.429 3.74257C64.6403 3.89677 64.8648 4.03202 65.0999 4.14674C65.4649 4.26041 65.7965 4.4616 66.0659 4.73278C66.3292 5.00904 66.5402 5.33088 66.6883 5.68259C66.6883 5.68259 66.7975 5.76746 66.7247 5.52496C66.6751 5.27432 66.5806 5.03471 66.4458 4.81766C66.2236 4.44078 66.0857 4.02022 66.0417 3.58494C66.034 3.18742 65.93 2.79769 65.7385 2.44922" fill="#00AEEF"/>
<path d="M65.4672 3.60933C65.4803 3.426 65.4381 3.24296 65.3459 3.08392C65.1883 2.77675 65.3095 2.43724 64.8084 1.6289C64.5255 1.17623 63.5514 0.820557 63.5514 0.820557C63.5514 0.820557 63.8303 1.22473 64.0162 1.43086C64.1379 1.58011 64.2398 1.74449 64.3193 1.9199C64.38 2.02903 64.7235 2.35237 64.8448 2.54233C64.8833 2.6007 64.9082 2.66701 64.9175 2.73632C64.9175 2.79695 64.7841 2.69995 64.7478 2.66358C64.4462 2.4167 64.1025 2.22638 63.7333 2.10178C63.2973 2.04989 62.8652 1.96888 62.4399 1.85928C62.9581 2.31157 63.5653 2.65027 64.2223 2.85354C64.7148 2.9421 65.1577 3.20813 65.4672 3.60125" fill="#00AEEF"/>
<path d="M63.5394 1.59251C63.251 1.2382 62.8875 0.952474 62.475 0.756042C62.0626 0.55961 61.6116 0.457388 61.1548 0.456787C61.2293 0.518511 61.3183 0.560234 61.4134 0.578033C61.5832 0.614409 61.8904 0.921577 62.048 1.01858C62.5023 1.30656 63.0092 1.50163 63.5394 1.59251Z" fill="#00AEEF"/>
<path d="M16.6617 0.0241699V14.3682C16.6839 15.507 16.4706 16.638 16.0352 17.6905C15.646 18.6184 15.0534 19.4471 14.3011 20.1155C13.5327 20.7795 12.6354 21.2776 11.6655 21.5786C9.48543 22.2361 7.15982 22.2361 4.97971 21.5786C4.0098 21.2776 3.11254 20.7795 2.34419 20.1155C1.59179 19.449 1.00146 18.6196 0.618163 17.6905C0.187484 16.6368 -0.0229861 15.5062 -0.000295483 14.3682V0.0241699H4.47848V14.3682C4.47848 15.7909 4.81937 16.8283 5.50116 17.4803C6.30807 18.1143 7.30452 18.4589 8.33071 18.4589C9.3569 18.4589 10.3534 18.1143 11.1603 17.4803C11.8313 16.8283 12.1668 15.7909 12.1668 14.3682V0.0241699H16.6617Z" fill="#00AEEF"/>
<path d="M38.013 21.7363H33.5343L24.8152 7.43271V21.7363H20.3364V0H24.8152L33.5504 14.3319V0H38.013V21.7363Z" fill="#00AEEF"/>
<path d="M3.03582 30.4059C2.88383 30.4038 2.73313 30.4341 2.59374 30.4947C2.45435 30.5553 2.32946 30.6449 2.22738 30.7575C1.99613 31.0472 1.85552 31.3987 1.82315 31.7679H4.20402V31.6265C4.21757 31.2983 4.108 30.9768 3.89681 30.7252C3.78709 30.6157 3.65547 30.5307 3.51056 30.4756C3.36566 30.4206 3.21076 30.3968 3.05603 30.4059H3.03582ZM3.25006 35.7814C2.82765 35.7974 2.40637 35.7276 2.01173 35.5762C1.61708 35.4247 1.25727 35.1948 0.954077 34.9003C0.654462 34.5889 0.421445 34.2197 0.269245 33.8153C0.117045 33.4108 0.0488529 32.9796 0.0688307 32.548V32.3782C0.0586601 31.7703 0.185776 31.168 0.440714 30.616C0.666445 30.1163 1.03491 29.6945 1.49978 29.4035C1.97128 29.1242 2.51224 28.9841 3.06007 28.9994C3.44645 28.9801 3.83234 29.0458 4.1906 29.1918C4.54887 29.3377 4.87079 29.5604 5.13373 29.8441C5.67609 30.5222 5.94567 31.3784 5.88962 32.2449V32.9562H1.80698C1.84151 33.3489 2.01833 33.7154 2.30418 33.9868C2.59163 34.2534 2.97123 34.3983 3.36324 34.391C3.66133 34.4041 3.95812 34.3443 4.22789 34.2168C4.49766 34.0894 4.73227 33.898 4.91141 33.6595L5.75219 34.6214C5.48783 34.9984 5.12788 35.2984 4.7093 35.4904C4.25198 35.701 3.75353 35.8073 3.25006 35.8016" fill="#00AEEF"/>
<path d="M8.48818 29.1245L8.54477 29.8803C8.75912 29.597 9.03846 29.3694 9.35923 29.2168C9.67999 29.0642 10.0328 28.9909 10.3878 29.0032C10.6704 28.981 10.9543 29.0245 11.2173 29.1304C11.4803 29.2363 11.7151 29.4016 11.9034 29.6135C12.2736 30.148 12.453 30.7915 12.4127 31.4404V35.664H10.699V31.4768C10.7252 31.1874 10.6415 30.8988 10.4646 30.6684C10.3541 30.5737 10.2253 30.5026 10.0863 30.4595C9.9473 30.4164 9.80094 30.4023 9.65624 30.4178C9.43394 30.4093 9.21379 30.4641 9.02135 30.5757C8.8289 30.6873 8.67206 30.8512 8.56902 31.0483V35.6599H6.85938V29.1245H8.48818Z" fill="#00AEEF"/>
<path d="M16.1852 33.5219L17.3776 29.1165H19.1683L17.0057 35.6559H15.3686L13.2061 29.1165H14.9968L16.1852 33.5219Z" fill="#00AEEF"/>
<path d="M21.7993 35.66H20.0816V29.1245H21.7993V35.66ZM19.9805 27.427C19.9762 27.3072 19.997 27.1877 20.0416 27.0764C20.0861 26.965 20.1534 26.8642 20.2392 26.7804C20.3331 26.6925 20.4438 26.6247 20.5647 26.5809C20.6856 26.5371 20.8141 26.5184 20.9425 26.5257C21.0701 26.5198 21.1976 26.5393 21.3176 26.583C21.4376 26.6267 21.5478 26.6938 21.6417 26.7804C21.8089 26.9549 21.9023 27.1873 21.9023 27.429C21.9023 27.6708 21.8089 27.9032 21.6417 28.0777C21.4465 28.2419 21.1996 28.332 20.9445 28.332C20.6894 28.332 20.4425 28.2419 20.2473 28.0777C20.1607 27.9935 20.0926 27.8921 20.0473 27.7801C20.0021 27.668 19.9807 27.5478 19.9846 27.427" fill="#00AEEF"/>
<path d="M26.8884 30.7412C26.6836 30.7111 26.477 30.6949 26.27 30.6927C25.6234 30.6927 25.199 30.915 24.9969 31.3636V35.6438H23.2832V29.1245H24.8999L24.9484 29.9046C25.0767 29.6349 25.2789 29.4071 25.5314 29.2475C25.7839 29.088 26.0764 29.0033 26.3751 29.0033C26.5558 29.0012 26.7358 29.0271 26.9086 29.0801L26.8884 30.7412Z" fill="#00AEEF"/>
<path d="M29.0194 32.4509C28.9877 32.9497 29.106 33.4465 29.3589 33.8776C29.4714 34.0321 29.6189 34.1578 29.7892 34.2444C29.9596 34.3311 30.148 34.3763 30.3391 34.3763C30.5303 34.3763 30.7187 34.3311 30.8891 34.2444C31.0594 34.1578 31.2069 34.0321 31.3194 33.8776C31.5877 33.4037 31.7088 32.8605 31.667 32.3175C31.696 31.8217 31.5749 31.3287 31.3194 30.9029C31.2118 30.7415 31.0647 30.6103 30.892 30.5219C30.7194 30.4334 30.5269 30.3907 30.3331 30.3977C30.1412 30.39 29.9507 30.4321 29.78 30.5199C29.6092 30.6078 29.4642 30.7383 29.3589 30.8989C29.0989 31.3699 28.981 31.9061 29.0194 32.4428V32.4509ZM27.3055 32.3215C27.2935 31.723 27.4194 31.1298 27.6733 30.5876C27.8992 30.0977 28.2666 29.6866 28.7283 29.4075C29.2192 29.125 29.7791 28.985 30.3452 29.0033C30.7345 28.9886 31.1228 29.0526 31.4867 29.1915C31.8507 29.3304 32.1829 29.5413 32.4633 29.8116C33.0348 30.4048 33.3623 31.191 33.3809 32.0144V32.4589C33.4309 33.3408 33.1417 34.2085 32.5725 34.884C31.9826 35.4653 31.1876 35.7911 30.3594 35.7911C29.5311 35.7911 28.7362 35.4653 28.1462 34.884C27.5728 34.1934 27.2837 33.3105 27.3378 32.4145L27.3055 32.3215Z" fill="#00AEEF"/>
<path d="M36.0889 29.1245L36.1414 29.8803C36.3558 29.597 36.6351 29.3694 36.9559 29.2168C37.2766 29.0642 37.6294 28.9909 37.9844 29.0032C38.267 28.981 38.551 29.0245 38.8139 29.1304C39.0769 29.2363 39.3117 29.4016 39.5001 29.6135C39.8702 30.148 40.0496 30.7915 40.0093 31.4404V35.664H38.2997V31.4768C38.3247 31.1869 38.2396 30.8982 38.0612 30.6684C37.9512 30.5729 37.8225 30.5013 37.6834 30.4581C37.5442 30.415 37.3976 30.4013 37.2529 30.4178C37.0311 30.4091 36.8114 30.4638 36.6196 30.5755C36.4277 30.6872 36.2717 30.8512 36.1697 31.0483V35.6599H34.4722V29.1245H36.0889Z" fill="#00AEEF"/>
<path d="M42.9853 29.1246L43.0378 29.8562C43.2561 29.5789 43.5369 29.357 43.8572 29.2088C44.1775 29.0606 44.5283 28.9902 44.8811 29.0034C45.2332 28.973 45.5861 29.0527 45.8909 29.2316C46.1958 29.4104 46.4376 29.6795 46.5828 30.0017C46.7892 29.6815 47.0757 29.421 47.414 29.2458C47.7522 29.0707 48.1304 28.9871 48.511 29.0034C48.7998 28.9811 49.0898 29.0252 49.3589 29.1324C49.628 29.2396 49.8689 29.407 50.0632 29.6218C50.442 30.1659 50.6218 30.8239 50.5725 31.485V35.6641H48.8546V31.489C48.8772 31.2031 48.8016 30.9179 48.6403 30.6807C48.5423 30.5842 48.4238 30.5109 48.2937 30.4661C48.1636 30.4214 48.0252 30.4063 47.8885 30.422C47.6526 30.4122 47.4201 30.4807 47.2271 30.6166C47.0342 30.7525 46.8915 30.9484 46.8213 31.1738V35.6641H45.1074V31.5012C45.1292 31.2147 45.0522 30.9294 44.8892 30.6928C44.7904 30.5988 44.6724 30.5273 44.5432 30.4833C44.4141 30.4394 44.277 30.424 44.1413 30.4382C43.9242 30.4263 43.7083 30.4786 43.5207 30.5886C43.3331 30.6986 43.182 30.8613 43.0863 31.0566V35.6803H41.3765V29.1246H42.9853Z" fill="#00AEEF"/>
<path d="M54.7155 30.4057C54.5634 30.4026 54.4123 30.4323 54.2728 30.493C54.1332 30.5537 54.0085 30.6439 53.9071 30.7573C53.6743 31.0462 53.5335 31.3981 53.5028 31.7678H55.8877V31.6263C55.9002 31.2976 55.7891 30.976 55.5765 30.725C55.4669 30.6153 55.3353 30.5301 55.1904 30.4751C55.0454 30.4201 54.8905 30.3964 54.7357 30.4057H54.7155ZM54.9338 35.7812C54.5107 35.7976 54.0888 35.7279 53.6934 35.5765C53.2981 35.425 52.9376 35.1949 52.6338 34.9001C52.3341 34.5887 52.1011 34.2195 51.9489 33.8151C51.7967 33.4107 51.7285 32.9795 51.7485 32.5478V32.3781C51.7378 31.7697 51.8664 31.1669 52.1244 30.6159C52.3474 30.1156 52.7148 29.6934 53.1795 29.4034C53.6522 29.1235 54.1946 28.9834 54.7438 28.9992C55.1296 28.9797 55.515 29.0453 55.8726 29.1913C56.2303 29.3373 56.5514 29.5601 56.8134 29.8439C57.3558 30.522 57.6254 31.3782 57.5693 32.2447V32.956H53.4705C53.5061 33.3492 53.6844 33.7158 53.9717 33.9867C54.2577 34.253 54.636 34.3979 55.0268 34.3908C55.3249 34.4043 55.6218 34.3447 55.8916 34.2172C56.1615 34.0897 56.396 33.8981 56.5749 33.6593L57.4157 34.6212C57.1522 34.9991 56.792 35.2992 56.3728 35.4902C55.917 35.7011 55.4198 35.8075 54.9176 35.8014" fill="#00AEEF"/>
<path d="M60.172 29.1246L60.2245 29.8804C60.4389 29.5972 60.7182 29.3696 61.039 29.217C61.3598 29.0643 61.7125 28.9911 62.0676 29.0034C62.3485 28.9819 62.6307 29.0254 62.8921 29.1305C63.1536 29.2357 63.3873 29.3996 63.5751 29.6096C63.947 30.1433 64.1266 30.7874 64.0844 31.4365V35.6601H62.3747V31.4769C62.3998 31.1871 62.3147 30.8984 62.1363 30.6686C62.0287 30.5757 61.9034 30.5056 61.7679 30.4625C61.6324 30.4194 61.4896 30.4043 61.3481 30.418C61.1263 30.4093 60.9067 30.464 60.7148 30.5757C60.523 30.6873 60.3669 30.8513 60.265 31.0485V35.6601H58.5513V29.1246H60.172Z" fill="#00AEEF"/>
<path d="M67.5166 27.5078V29.1245H68.6119V30.4057H67.5166V33.6674C67.4993 33.8519 67.548 34.0367 67.654 34.1888C67.7249 34.2502 67.808 34.2961 67.8979 34.3232C67.9877 34.3504 68.0823 34.3583 68.1754 34.3464C68.3435 34.3475 68.5113 34.3326 68.6766 34.3019V35.6276C68.3417 35.7327 67.9928 35.7858 67.6419 35.7852C66.4402 35.7852 65.8272 35.1669 65.8029 33.9301V30.4057H64.8652V29.1245H65.8029V27.5078H67.5166Z" fill="#00AEEF"/>
<path d="M4.34129 44.079C4.36816 43.5895 4.25755 43.1023 4.02195 42.6725C3.9274 42.5142 3.79184 42.3845 3.62961 42.297C3.46737 42.2095 3.2845 42.1674 3.10033 42.1753C2.87341 42.1548 2.64564 42.2042 2.44764 42.3169C2.24964 42.4296 2.0909 42.6002 1.99276 42.8058V45.4814C2.09148 45.6903 2.25154 45.8641 2.4516 45.9796C2.65165 46.0952 2.88219 46.147 3.11245 46.1281C3.9209 46.1281 4.32512 45.4451 4.32512 44.079H4.34129ZM6.03498 44.2083C6.07938 45.0679 5.84395 45.9188 5.36397 46.6333C5.1596 46.9235 4.88647 47.1584 4.56902 47.3171C4.25158 47.4758 3.89973 47.5533 3.54497 47.5427C3.24843 47.5526 2.95347 47.4956 2.68197 47.376C2.41046 47.2563 2.16938 47.0771 1.97659 46.8516V49.9354H0.262695V40.886H1.85129L1.91192 41.5246C2.10327 41.2804 2.34922 41.0845 2.63002 40.9525C2.91082 40.8205 3.21865 40.7562 3.5288 40.7648C3.88589 40.7501 4.24106 40.824 4.56266 40.9798C4.88427 41.1357 5.16232 41.3687 5.37205 41.658C5.84656 42.3895 6.07591 43.2529 6.02689 44.1234L6.03498 44.2083Z" fill="#00AEEF"/>
<path d="M10.7882 42.5229C10.5848 42.4927 10.3795 42.4765 10.1738 42.4744C9.52312 42.4744 9.09874 42.6967 8.9007 43.1453V47.4255H7.18701V40.886H8.8037L8.8522 41.6661C8.98053 41.3964 9.18266 41.1685 9.43518 41.009C9.68769 40.8495 9.98024 40.7648 10.2789 40.7648C10.4596 40.7627 10.6396 40.7886 10.8124 40.8416L10.7882 42.5229Z" fill="#00AEEF"/>
<path d="M12.919 44.2164C12.8863 44.7158 13.0061 45.2134 13.2626 45.6432C13.3752 45.7969 13.5225 45.9218 13.6924 46.008C13.8624 46.0942 14.0502 46.1391 14.2408 46.1391C14.4314 46.1391 14.6192 46.0942 14.7892 46.008C14.9591 45.9218 15.1064 45.7969 15.219 45.6432C15.4904 45.1703 15.613 44.6266 15.5707 44.0831C15.6003 43.5854 15.4777 43.0906 15.219 42.6644C15.1111 42.5046 14.9643 42.3748 14.7925 42.2872C14.6207 42.1995 14.4295 42.1569 14.2368 42.1633C14.0449 42.1556 13.8544 42.1977 13.6836 42.2855C13.5129 42.3733 13.3679 42.5039 13.2626 42.6644C12.999 43.1342 12.8795 43.6711 12.919 44.2084V44.2164ZM11.2051 44.0871C11.1955 43.4875 11.3212 42.8935 11.5729 42.3492C11.8028 41.8616 12.1711 41.4526 12.632 41.173C13.1226 40.8899 13.6827 40.7499 14.2489 40.7689C14.6382 40.7544 15.0263 40.8185 15.3903 40.9573C15.7542 41.0962 16.0864 41.3071 16.367 41.5772C16.9364 42.1697 17.2624 42.9544 17.2806 43.7759V44.2245C17.3301 45.1064 17.041 45.9738 16.4721 46.6495C15.8839 47.2325 15.0892 47.5596 14.261 47.5596C13.4328 47.5596 12.6381 47.2325 12.0499 46.6495C11.4676 45.9645 11.1709 45.0818 11.2213 44.1841L11.2051 44.0871Z" fill="#00AEEF"/>
<path d="M19.8754 44.2367C19.8477 44.7259 19.9689 45.212 20.223 45.631C20.3262 45.7911 20.469 45.9217 20.6376 46.0103C20.8061 46.0988 20.9948 46.1422 21.1851 46.1363C21.4093 46.1531 21.6336 46.1058 21.8319 45.9998C22.0301 45.8939 22.1942 45.7337 22.3048 45.5381V42.7816C22.1944 42.5876 22.0316 42.4286 21.835 42.3228C21.6384 42.217 21.4159 42.1687 21.1932 42.1835C21.0016 42.1789 20.8121 42.2237 20.6429 42.3136C20.4737 42.4035 20.3305 42.5355 20.2271 42.6968C19.9615 43.1645 19.8392 43.7 19.8754 44.2367ZM18.1615 44.1073C18.1206 43.244 18.3665 42.3913 18.8608 41.6823C19.0786 41.3869 19.365 41.1491 19.6953 40.9892C20.0256 40.8293 20.3899 40.7523 20.7566 40.7648C21.0688 40.7496 21.3801 40.8083 21.6653 40.9361C21.9505 41.0639 22.2014 41.2573 22.3978 41.5004L22.4705 40.8861H24.0227V47.2073C24.0297 47.7337 23.8898 48.2516 23.6185 48.7027C23.3643 49.1246 22.9899 49.4609 22.5433 49.6687C22.0361 49.8994 21.4834 50.0127 20.9264 50.0001C20.4536 49.9985 19.986 49.9009 19.552 49.7132C19.1562 49.5593 18.8078 49.3043 18.5415 48.9735L19.2974 47.9106C19.4866 48.1389 19.7237 48.3228 19.992 48.4492C20.2602 48.5756 20.553 48.6415 20.8496 48.6421C21.0426 48.6536 21.236 48.6267 21.4185 48.5629C21.601 48.499 21.769 48.3996 21.9127 48.2703C22.0443 48.1286 22.1458 47.9617 22.2111 47.7797C22.2764 47.5977 22.3042 47.4044 22.2927 47.2113V46.8638C22.1 47.0867 21.8598 47.2638 21.5899 47.382C21.3199 47.5001 21.0269 47.5565 20.7324 47.5468C20.3698 47.5556 20.0104 47.4763 19.6852 47.3158C19.3599 47.1553 19.0784 46.9184 18.8649 46.6253C18.3625 45.9194 18.1107 45.0658 18.1494 44.2003L18.1615 44.1073Z" fill="#00AEEF"/>
<path d="M29.0145 42.5229C28.8139 42.4893 28.6114 42.4691 28.4082 42.4623C27.7615 42.4623 27.3372 42.6846 27.1351 43.1332V47.4134H25.4214V40.886H27.0381L27.0866 41.6661C27.2145 41.3961 27.4166 41.168 27.6692 41.0084C27.9218 40.8488 28.2145 40.7643 28.5133 40.7648C28.694 40.7627 28.874 40.7886 29.0468 40.8416L29.0145 42.5229Z" fill="#00AEEF"/>
<path d="M32.0466 46.2088C32.2902 46.2106 32.5304 46.1523 32.7459 46.039C32.9471 45.9356 33.112 45.7735 33.2189 45.5743V44.4507H32.5802C31.7192 44.4507 31.2665 44.7538 31.2099 45.356V45.4611C31.2072 45.5616 31.226 45.6616 31.2651 45.7543C31.3041 45.847 31.3625 45.9303 31.4363 45.9986C31.6068 46.1472 31.829 46.2227 32.0547 46.2088H32.0466ZM33.4695 47.4213C33.3823 47.2362 33.325 47.0384 33.2997 46.8353C33.0997 47.0659 32.8508 47.2491 32.5711 47.3715C32.2914 47.4938 31.988 47.5523 31.6828 47.5426C31.1106 47.5625 30.5524 47.363 30.1225 46.9848C29.9225 46.811 29.7633 46.5952 29.6564 46.3527C29.5495 46.1103 29.4975 45.8472 29.5041 45.5823C29.4847 45.2711 29.5438 44.9601 29.6759 44.6776C29.8079 44.3952 30.0088 44.1504 30.26 43.9656C30.911 43.5549 31.6743 43.3584 32.4428 43.4039H33.2512V43.032C33.2638 42.7704 33.1837 42.5128 33.0248 42.3045C32.9324 42.2079 32.8193 42.1333 32.694 42.0864C32.5687 42.0395 32.4345 42.0215 32.3013 42.0337C32.0581 42.0187 31.8179 42.0935 31.6262 42.2439C31.5438 42.3159 31.4787 42.4057 31.436 42.5065C31.3933 42.6074 31.374 42.7166 31.3797 42.8259H29.6213C29.6198 42.4478 29.7403 42.0793 29.9649 41.775C30.2124 41.4375 30.548 41.1746 30.935 41.0152C31.3807 40.8254 31.8614 40.7318 32.3458 40.7404C33.0269 40.7036 33.6977 40.9194 34.2294 41.3466C34.4654 41.5618 34.6503 41.8269 34.7706 42.1227C34.8909 42.4186 34.9436 42.7375 34.9247 43.0563V45.8855C34.9016 46.3689 34.9886 46.8512 35.1793 47.296V47.3971L33.4695 47.4213Z" fill="#00AEEF"/>
<path d="M37.9202 40.8859L37.9727 41.6174C38.191 41.3401 38.4718 41.1183 38.7921 40.97C39.1124 40.8218 39.4633 40.7515 39.816 40.7646C40.1682 40.7336 40.5214 40.8131 40.8263 40.992C41.1313 41.1709 41.373 41.4404 41.5178 41.7629C41.7241 41.4428 42.0106 41.1822 42.3489 41.0071C42.6871 40.8319 43.0653 40.7483 43.4459 40.7646C43.7347 40.7423 44.0247 40.7864 44.2938 40.8936C44.5629 41.0008 44.8038 41.1682 44.9981 41.383C45.3769 41.9271 45.5568 42.5851 45.5074 43.2462V47.4254H43.7895V43.2705C43.8121 42.9845 43.7365 42.6994 43.5753 42.4621C43.4772 42.3656 43.3588 42.2923 43.2287 42.2476C43.0986 42.2028 42.9601 42.1877 42.8234 42.2035C42.5875 42.1937 42.355 42.2621 42.1621 42.398C41.9691 42.534 41.8264 42.7298 41.7563 42.9552V47.4456H40.0504V43.2705C40.0731 42.9833 39.9944 42.6973 39.8281 42.4621C39.73 42.3684 39.6126 42.2971 39.4842 42.2531C39.3558 42.2092 39.2194 42.1936 39.0844 42.2075C38.867 42.1946 38.6507 42.2464 38.4629 42.3565C38.2751 42.4666 38.1242 42.63 38.0293 42.8259V47.4496H36.3154V40.8859H37.9202Z" fill="#00AEEF"/>
<path d="M48.5024 40.8859L48.555 41.6174C48.7733 41.3401 49.054 41.1183 49.3744 40.97C49.6947 40.8218 50.0455 40.7515 50.3982 40.7646C50.7505 40.7336 51.1036 40.8131 51.4086 40.992C51.7136 41.1709 51.9552 41.4404 52.1 41.7629C52.3063 41.4428 52.5929 41.1822 52.9311 41.0071C53.2694 40.8319 53.6476 40.7483 54.0281 40.7646C54.3169 40.7423 54.607 40.7864 54.8761 40.8936C55.1451 41.0008 55.3861 41.1682 55.5804 41.383C55.9591 41.9271 56.139 42.5851 56.0897 43.2462V47.4254H54.3717V43.2705C54.3943 42.9845 54.3188 42.6994 54.1575 42.4621C54.0594 42.3656 53.941 42.2923 53.8109 42.2476C53.6808 42.2028 53.5423 42.1877 53.4056 42.2035C53.1698 42.1937 52.9373 42.2621 52.7443 42.398C52.5513 42.534 52.4087 42.7298 52.3385 42.9552V47.4456H50.6408V43.2705C50.6614 42.9835 50.5829 42.6982 50.4184 42.4621C50.3203 42.3684 50.2029 42.2971 50.0745 42.2531C49.9461 42.2092 49.8097 42.1936 49.6747 42.2075C49.4574 42.1946 49.2411 42.2464 49.0532 42.3565C48.8654 42.4666 48.7145 42.63 48.6197 42.8259V47.4496H46.9058V40.8859H48.5024Z" fill="#00AEEF"/>
<path d="M60.2332 42.1714C60.0811 42.1682 59.93 42.198 59.7905 42.2587C59.651 42.3194 59.5262 42.4095 59.4248 42.523C59.192 42.8118 59.0512 43.1638 59.0205 43.5334H61.4055V43.3919C61.4171 43.064 61.3077 42.7432 61.0983 42.4906C60.9878 42.3811 60.8554 42.296 60.7099 42.241C60.5643 42.186 60.4088 42.1622 60.2534 42.1714H60.2332ZM60.4515 47.5468C60.0281 47.5631 59.6058 47.4931 59.2104 47.3409C58.815 47.1887 58.4547 46.9576 58.1515 46.6617C57.8516 46.3513 57.6183 45.9829 57.4661 45.579C57.3139 45.1752 57.2458 44.7445 57.2662 44.3135V44.1437C57.2555 43.5353 57.3841 42.9325 57.6422 42.3815C57.8651 41.8813 58.2325 41.459 58.6972 41.169C59.1699 40.8891 59.7123 40.749 60.2615 40.7648C60.6473 40.7454 61.0327 40.8109 61.3903 40.9569C61.748 41.1029 62.0692 41.3257 62.3311 41.6095C62.8735 42.2877 63.1431 43.1438 63.087 44.0103V44.7217H59.0044C59.0425 45.1142 59.2204 45.4799 59.5056 45.7523C59.7926 46.0196 60.1725 46.1646 60.5647 46.1565C60.8622 46.1696 61.1584 46.1098 61.4275 45.9823C61.6967 45.8548 61.9305 45.6635 62.1088 45.4249L62.9496 46.3868C62.6861 46.7647 62.3259 47.0648 61.9067 47.2558C61.4509 47.4668 60.9537 47.5731 60.4515 47.567" fill="#00AEEF"/>
</g>
<defs>
<clipPath id="clip0_453_1649">
<rect width="68.75" height="50" fill="white"/>
</clipPath>
</defs>
</svg>
